<?xml version="1.0" encoding="UTF-8" standalone="no"?>
<!-- Created with Inkscape (http://www.inkscape.org/) -->

<svg
   version="1.1"
   id="svg182"
   width="373.84741"
   height="379.4541"
   viewBox="0 0 373.84741 379.4541"
   xmlns="http://www.w3.org/2000/svg"
   xmlns:svg="http://www.w3.org/2000/svg">
  <defs
     id="defs186" />
  <g
     id="g188"
     transform="translate(-70.701851,-55.458054)">
    <path
       style="display:inline;fill:#000000"
       d="m 196.66737,342.46459 c -2.9064,-1.04567 -6.28351,-2.83986 -7.50468,-3.9871 -1.22118,-1.14723 -3.69373,-4.51698 -5.49455,-7.48833 -2.03187,-3.35257 -3.50385,-7.3412 -3.87938,-10.512 -0.47241,-3.9887 -0.11315,-6.32178 1.63772,-10.63565 1.31871,-3.24908 3.83585,-6.96524 6.10885,-9.01877 2.12629,-1.92097 5.06009,-3.79237 6.51957,-4.15868 1.45948,-0.36631 6.53332,-0.37955 11.27521,-0.0294 4.74189,0.35012 10.87162,1.30001 13.62162,2.11087 2.75,0.81087 11.18062,4.52519 18.73471,8.25406 7.55409,3.72887 13.59457,7.22082 13.42329,7.75988 -0.17128,0.53907 -2.45538,2.08345 -5.07577,3.43195 -4.61258,2.37372 -4.89686,2.40073 -8.9233,0.84806 -2.28741,-0.88207 -8.15567,-3.26199 -13.04058,-5.28871 -5.17,-2.14501 -11.3195,-3.90601 -14.7152,-4.21392 -3.63144,-0.32929 -6.9936,-0.0485 -8.90657,0.74392 -1.69016,0.70008 -3.46169,1.99912 -3.93673,2.88675 -0.47504,0.88762 -1.00331,3.23419 -1.17393,5.21459 -0.18599,2.15876 0.36269,4.62772 1.3701,6.16523 1.00764,1.53785 3.99497,3.44842 7.46215,4.77248 3.84963,1.4701 8.12113,2.23189 12.78183,2.27953 4.30692,0.044 9.11599,-0.63467 12.5,-1.7641 3.025,-1.00962 8.5572,-3.3633 12.29378,-5.2304 3.73658,-1.86711 9.81158,-5.30316 13.5,-7.63567 3.68842,-2.33251 12.78122,-7.2627 20.20622,-10.95597 10.04732,-4.99763 15.63196,-7.12869 21.83597,-8.33243 4.69426,-0.91082 11.29547,-1.45018 15.11035,-1.23462 5.43494,0.3071 7.46525,0.90974 10.2685,3.04788 2.00718,1.53095 4.66939,5.13761 6.25585,8.4752 1.92025,4.0398 2.73135,7.27831 2.66199,10.6287 -0.0549,2.65022 -0.95366,6.74899 -1.99733,9.10837 -1.04366,2.35938 -3.86357,6.33245 -6.26645,8.82903 -3.19509,3.31969 -5.82817,4.96977 -9.80038,6.14163 -2.98733,0.88131 -8.83733,1.58849 -13,1.5715 -4.16268,-0.017 -10.83335,-0.45493 -14.82373,-0.97323 -3.99038,-0.5183 -10.51538,-2.30405 -14.5,-3.96833 -3.98462,-1.66428 -8.50113,-4.03883 -10.03667,-5.27676 l -2.7919,-2.2508 5.09627,-3.3249 5.09626,-3.3249 8.69564,3.1682 c 6.43623,2.345 10.51445,3.19403 15.69563,3.26761 4.32818,0.0615 9.09929,-0.59352 12.5,-1.71602 3.025,-0.99848 6.7375,-2.96938 8.25,-4.37979 1.71064,-1.59518 2.75,-3.60292 2.75,-5.31219 0,-1.5113 -0.43067,-3.88055 -0.95704,-5.26501 -0.52637,-1.38447 -2.41016,-3.26865 -4.18619,-4.18707 -2.39269,-1.23731 -4.79989,-1.53827 -9.29296,-1.16186 -4.1583,0.34837 -9.98729,2.12854 -18.54932,5.66497 -6.86704,2.83633 -14.51704,6.34588 -17,7.799 -2.48297,1.45312 -7.51273,4.7796 -11.17725,7.39217 -3.66452,2.61257 -8.59287,5.7348 -10.9519,6.93828 -2.35902,1.20349 -6.78264,3.04605 -9.83026,4.09459 -3.9258,1.35067 -9.47862,2.05611 -19.0481,2.41991 -11.60966,0.44136 -14.24927,0.24643 -18.79134,-1.38771 z m 45.35367,-38.20732 c -4.91187,-1.03472 -11.66187,-3.23032 -15,-4.87911 -3.33812,-1.64879 -9.26639,-5.92228 -13.17393,-9.49665 -5.04645,-4.61616 -7.75751,-8.01651 -9.35831,-11.73768 -1.69125,-3.9314 -2.13836,-6.50233 -1.79155,-10.30167 0.25418,-2.78457 1.21562,-7.58418 2.13653,-10.66581 0.93103,-3.11552 3.22491,-7.41442 5.16695,-9.68325 l 3.49258,-4.08029 -3.36518,-2.56675 c -1.85085,-1.41171 -4.57843,-2.56675 -6.06128,-2.56675 -1.48286,0 -4.03097,0.98691 -5.66248,2.19313 -2.27909,1.68501 -3.23974,1.91977 -4.14626,1.01325 -0.90652,-0.90652 -0.63252,-1.76254 1.18261,-3.69466 1.29937,-1.38312 3.89198,-2.93707 5.76135,-3.45323 1.86937,-0.51616 4.04028,-0.69233 4.82426,-0.39149 1.10154,0.4227 1.4254,-0.45852 1.4254,-3.87851 0,-2.43402 0.67986,-6.71481 1.51079,-9.51287 1.0275,-3.45996 2.67883,-6.11293 5.16211,-8.29328 3.23494,-2.84032 4.15901,-3.14868 8.10344,-2.70408 2.44867,0.276 5.61218,1.36792 7.03001,2.42648 1.41784,1.05857 3.89292,3.54944 5.50018,5.53527 1.90284,2.35102 3.09811,5.17032 3.42625,8.08154 0.50394,4.47095 0.50394,4.47095 3.63558,3.52811 1.7224,-0.51856 7.63817,-0.98583 13.14615,-1.03838 5.50798,-0.0525 11.02048,0.19342 12.25,0.54659 1.22952,0.35317 3.02299,0.85897 3.98549,1.12399 1.44529,0.39797 1.77761,-0.23574 1.90859,-3.6395 0.10448,-2.71507 1.13271,-5.52396 3.01338,-8.23187 1.61416,-2.32417 4.788,-5.08829 7.30329,-6.36049 2.44669,-1.2375 5.59067,-2.24832 6.98663,-2.24626 1.39596,0.002 3.92413,0.84893 5.61815,1.88194 1.69401,1.03301 3.89852,3.60303 4.89889,5.71116 1.00038,2.10814 2.03293,6.8249 2.29458,10.4817 0.47571,6.64873 0.47571,6.64873 4.17817,6.64873 2.03635,0 4.86749,0.76336 6.29142,1.69636 1.42393,0.93299 2.85321,2.38497 3.17618,3.2266 0.32296,0.84164 0.32116,1.96073 -0.004,2.48688 -0.34003,0.55019 -2.06515,0.087 -4.0604,-1.09024 -1.90807,-1.12578 -4.36583,-2.04687 -5.4617,-2.04687 -1.09587,0 -3.26562,0.65836 -4.82166,1.46301 -1.55604,0.80466 -3.12268,2.22793 -3.48144,3.16283 -0.41519,1.08198 0.22329,2.64016 1.75664,4.28698 1.3249,1.42295 2.94273,3.62398 3.59518,4.89118 0.65244,1.26719 1.82756,4.41719 2.61136,7 0.7838,2.5828 1.42996,7.07295 1.43592,9.97812 0.006,2.90516 -0.65803,6.88289 -1.4755,8.83939 -0.81748,1.9565 -2.66771,4.97954 -4.11162,6.71788 -1.44391,1.73834 -4.93757,5.10298 -7.76368,7.47699 -2.82611,2.37401 -7.61832,5.58869 -10.64937,7.14374 -3.03104,1.55505 -9.88569,3.77518 -15.23255,4.93362 -5.34686,1.15844 -11.64192,2.0746 -13.98901,2.0359 -2.3471,-0.0387 -8.28626,-0.91695 -13.19814,-1.95168 z m 30.97059,-6.52996 c 3.27806,-0.8536 7.9851,-2.72535 10.4601,-4.15944 2.475,-1.4341 6.60767,-4.22319 9.18371,-6.198 2.57604,-1.97481 5.83854,-5.67646 7.25,-8.22589 1.78699,-3.22772 2.56629,-6.14136 2.56629,-9.59477 0,-2.7277 -0.81047,-7.41613 -1.80104,-10.41875 -0.99056,-3.00261 -3.12806,-7.1356 -4.75,-9.18441 -1.62193,-2.04882 -5.68667,-5.51611 -9.03276,-7.70511 -3.3461,-2.18899 -8.92336,-5.0928 -12.39393,-6.4529 -3.47057,-1.36011 -8.96881,-2.95503 -12.21832,-3.54428 -3.24951,-0.58925 -8.02225,-0.76643 -10.60608,-0.39373 -2.58383,0.37269 -8.14462,1.75345 -12.35732,3.06836 -4.2127,1.3149 -10.0627,4.0162 -13,6.0029 -2.9373,1.98669 -6.84248,5.01749 -8.67818,6.7351 -1.83569,1.7176 -4.19572,4.78764 -5.2445,6.82231 -1.04878,2.03466 -2.43717,6.79179 -3.0853,10.5714 -1.0545,6.14938 -0.97621,7.37465 0.74451,11.65182 1.14692,2.85091 3.7389,6.40305 6.42292,8.80221 2.475,2.21233 6.19011,5.09908 8.2558,6.415 2.06569,1.31592 6.11569,3.25203 9,4.30245 2.88431,1.05042 6.1442,2.11593 7.2442,2.36779 1.1,0.25187 7.41796,0.51014 14.0399,0.57394 8.00229,0.0771 14.03864,-0.40447 18,-1.436 z m -46.32722,-12.58668 c -1.80803,-1.15774 -3.94553,-3.37781 -4.75,-4.93349 -0.80447,-1.55568 -1.46268,-4.16405 -1.46268,-5.79638 0,-1.63233 0.27314,-3.67968 0.60699,-4.54966 0.33384,-0.86999 1.23384,-1.58179 2,-1.58179 0.95552,0 1.39301,1.24026 1.39301,3.94911 0,3.33151 0.5426,4.36297 3.46956,6.59547 2.77353,2.11548 4.62915,2.66522 9.25,2.74038 3.17924,0.0517 6.80049,-0.24897 8.04721,-0.66818 1.24672,-0.41921 3.14607,-2.48577 4.22077,-4.59235 l 1.95399,-3.83015 -7.34904,-3.49004 c -5.8247,-2.76614 -8.01425,-4.4569 -10.55613,-8.15139 -1.7639,-2.56374 -3.59161,-6.0021 -4.06158,-7.6408 -0.7264,-2.53278 -0.41586,-3.47904 2.07142,-6.31189 1.855,-2.11272 4.66957,-3.83894 7.68986,-4.7163 2.92819,-0.8506 9.58072,-1.38386 17.26394,-1.38386 9.71317,0 13.55618,0.40752 17.23736,1.82788 2.68607,1.0364 5.64209,3.09845 6.82678,4.7622 1.53583,2.15687 1.91468,3.72985 1.42992,5.93696 -0.36272,1.65146 -2.35361,5.13347 -4.42419,7.73781 -2.54297,3.19848 -5.92362,5.83175 -10.41729,8.11425 -3.65892,1.85851 -6.65258,3.96148 -6.65258,4.67328 0,0.71179 1.1153,2.61963 2.47845,4.23964 1.63871,1.9475 3.75631,3.13962 6.25,3.51848 2.07435,0.31516 5.70786,0.20529 8.07447,-0.24415 2.36661,-0.44943 5.44572,-1.88573 6.84246,-3.19175 2.10624,-1.96944 2.45336,-3.02434 2.03444,-6.1827 -0.45489,-3.42963 -0.29603,-3.77748 1.59844,-3.5 1.43046,0.20952 2.37761,1.37135 2.96013,3.63106 0.64527,2.50313 0.41313,4.2269 -0.94089,6.98681 -0.98863,2.01511 -3.32655,4.68228 -5.19538,5.92703 -2.81252,1.87331 -4.75915,2.2632 -11.29966,2.2632 -4.97834,0 -8.94825,-0.54115 -10.73029,-1.46268 -1.55568,-0.80447 -3.72157,-2.87317 -4.81309,-4.59711 l -1.98459,-3.13444 -2.21608,3.1122 c -1.21885,1.71172 -3.50826,3.78042 -5.08759,4.59712 -1.83054,0.94661 -5.69898,1.4788 -10.67116,1.46806 -6.20204,-0.0134 -8.47301,-0.44801 -11.08698,-2.12183 z M 272.375,255.69042 c 1.6922,-1.4239 3.07673,-3.43306 3.07673,-4.46482 0,-1.03176 -0.87042,-2.34176 -1.93426,-2.91111 -1.06384,-0.56935 -2.98871,-1.03518 -4.27749,-1.03518 -1.28878,0 -3.34337,0.70052 -4.56574,1.5567 -1.241,0.86923 -2.22251,2.61068 -2.22251,3.9433 0,1.33262 0.98151,3.07407 2.22251,3.9433 1.22237,0.85618 2.76285,1.5567 3.42327,1.5567 0.66042,0 2.5853,-1.165 4.27749,-2.58889 z m -38.51093,-26.16278 c 0.38139,-1.37049 -0.14654,-3.76717 -1.34902,-6.12421 -1.08659,-2.1299 -3.37988,-5.05414 -5.0962,-6.49833 -1.71631,-1.44418 -4.3576,-2.62579 -5.86953,-2.62579 -1.57689,0 -3.62274,0.95933 -4.79831,2.25 -1.12715,1.2375 -2.55559,3.23292 -3.17432,4.43426 -0.61873,1.20134 -1.12496,4.32992 -1.12496,6.95239 0,3.99042 0.51203,5.29641 3.13919,8.00696 l 3.13919,3.23882 7.25368,-3.69121 c 4.90366,-2.49536 7.45668,-4.42071 7.88028,-5.94289 z m 61.8828,6.96549 c 1.46813,-1.53239 2.94199,-4.14949 3.27525,-5.81576 0.33325,-1.66628 0.085,-4.96423 -0.55173,-7.32878 -0.63671,-2.36455 -2.23093,-5.37246 -3.5427,-6.68423 -1.31178,-1.31178 -3.57354,-2.38505 -5.02613,-2.38505 -1.4526,0 -3.91633,0.90805 -5.47496,2.01789 -1.55863,1.10984 -3.76559,3.52546 -4.90437,5.36804 -1.13877,1.84257 -2.0705,4.7178 -2.0705,6.38938 0,2.73411 0.72789,3.44549 7.25,7.0856 3.9875,2.2255 7.50331,4.06723 7.81291,4.09273 0.3096,0.0255 1.7641,-1.20742 3.23223,-2.73982 z m -117.07926,59.9311 c -1.25626,-0.3547 -5.46482,-3.52907 -9.35235,-7.05415 -6.7733,-6.1418 -7.044,-6.56068 -6.48779,-10.03903 0.5324,-3.32945 0.33418,-3.72276 -2.39538,-4.75305 -1.63669,-0.61778 -3.24133,-1.8152 -3.56587,-2.66092 -0.34168,-0.89041 1.7082,-5.45245 4.86976,-10.83773 3.0029,-5.11502 6.8674,-12.09971 8.58778,-15.52152 1.72038,-3.42182 3.12797,-6.45932 3.12797,-6.75 0,-0.29069 -0.7875,-0.5353 -1.75,-0.54358 -0.9625,-0.008 -3.325,-0.58415 -5.25,-1.27972 -1.925,-0.69557 -4.59712,-1.87491 -5.93805,-2.62077 -1.34092,-0.74585 -4.64602,-3.4214 -7.34466,-5.94566 -2.69863,-2.52426 -5.71193,-6.17563 -6.69621,-8.11417 -0.98428,-1.93854 -2.28667,-5.99962 -2.8942,-9.02462 -0.74613,-3.71514 -0.80032,-7.585 -0.16697,-11.9249 0.5157,-3.5337 2.00732,-8.4837 3.31471,-11 1.3074,-2.51631 3.58757,-6.48993 5.06705,-8.83029 1.47948,-2.34035 4.53018,-5.58823 6.77933,-7.2175 2.24914,-1.62927 6.62953,-3.91667 9.73418,-5.08309 3.10465,-1.16643 8.79482,-2.36172 12.64482,-2.6562 4.81439,-0.36825 9.0295,-0.017 13.5,1.12498 3.575,0.91322 9.2,3.04428 12.5,4.73567 3.3,1.6914 7.26902,4.26239 8.82005,5.7133 1.55102,1.45092 3.70711,4.07122 4.7913,5.82289 l 1.97125,3.18486 5.2087,-2.42509 c 2.86479,-1.3338 5.70206,-2.42949 6.30506,-2.43486 0.603,-0.005 2.62238,-0.77105 4.48752,-1.7015 2.03699,-1.01618 6.71261,-1.86607 11.70882,-2.1283 4.57471,-0.24011 11.78033,0.12174 16.01248,0.80411 4.23215,0.68237 10.67426,2.3151 14.31581,3.6283 3.64154,1.31319 7.24154,2.36012 8,2.32652 0.75845,-0.0336 2.72901,-1.91054 4.37901,-4.17097 1.81436,-2.48558 5.44118,-5.44517 9.17686,-7.48856 3.39728,-1.85829 9.24584,-4.25636 12.99682,-5.32904 3.75098,-1.07268 8.93674,-1.95033 11.52392,-1.95033 2.58718,0 7.08861,0.50637 10.00318,1.12526 2.91457,0.6189 7.80121,2.38221 10.85921,3.91848 3.05799,1.53627 7.10826,4.5174 9.00059,6.62474 1.89233,2.10733 5.16318,7.23811 7.26854,11.40171 2.69034,5.32049 3.99126,9.37152 4.37755,13.63158 0.31319,3.45382 0.007,8.37083 -0.71271,11.42981 -0.69429,2.95263 -1.87425,6.57834 -2.62214,8.05713 -0.74788,1.47879 -3.65245,4.94549 -6.45458,7.70377 -2.80213,2.75828 -7.04301,5.95818 -9.42418,7.11088 -2.38116,1.1527 -5.94122,2.35738 -7.91122,2.67707 -1.97001,0.31969 -3.58184,0.73135 -3.58184,0.91479 0,0.18345 2.41243,4.73707 5.36096,10.11916 2.94853,5.38209 6.79701,12.20775 8.55218,15.16813 1.75518,2.96039 3.05525,6.32037 2.88905,7.46663 -0.20029,1.3813 -1.41381,2.40156 -3.59856,3.02545 -2.45937,0.70231 -3.12884,1.34558 -2.63655,2.53337 0.3629,0.87562 0.87476,2.33557 1.13745,3.24432 0.31336,1.08404 -1.70316,3.74184 -5.86345,7.72808 -3.4876,3.34169 -7.82963,6.79414 -9.64898,7.67211 -2.59679,1.25315 -3.61791,1.33903 -4.75,0.39948 -0.79315,-0.65826 -1.4421,-1.53715 -1.4421,-1.95307 0,-0.41593 1.3403,-1.31141 2.97843,-1.98995 1.63814,-0.67854 5.27829,-3.49756 8.08921,-6.2645 4.27743,-4.21048 5.0136,-5.45585 4.51481,-7.63761 -0.32779,-1.43375 -0.87681,-4.06932 -1.22005,-5.85682 -0.59672,-3.10752 -0.48683,-3.25 2.50676,-3.25 1.72196,0 3.13084,-0.25642 3.13084,-0.56982 0,-0.31341 -1.33498,-2.51016 -2.96663,-4.88168 -1.63164,-2.37151 -5.45664,-9.01646 -8.5,-14.76655 -3.04335,-5.7501 -5.53337,-11.37324 -5.53337,-12.49589 0,-1.12264 0.5625,-2.4876 1.25,-3.03323 0.6875,-0.54562 3.05,-1.31129 5.25,-1.70146 2.2,-0.39018 5.85508,-1.52316 8.1224,-2.51772 2.26733,-0.99457 5.95353,-3.46262 8.19157,-5.48455 2.23804,-2.02194 4.99546,-5.58971 6.1276,-7.9284 1.56472,-3.23227 2.05843,-6.2184 2.05843,-12.44999 0,-4.50882 -0.4225,-8.97924 -0.93888,-9.93428 -0.51639,-0.95504 -2.02517,-4.23367 -3.35285,-7.28586 -1.52943,-3.51598 -3.84198,-6.67343 -6.31112,-8.61692 -2.14343,-1.68713 -5.90891,-4.08717 -8.36774,-5.33344 -2.54207,-1.28845 -7.07155,-2.47047 -10.5,-2.74007 -3.31617,-0.26078 -8.60964,0.007 -11.76326,0.59592 -3.15361,0.58853 -8.32861,2.29245 -11.5,3.78647 -3.53986,1.66761 -7.91841,4.96368 -11.34058,8.53693 -4.0453,4.22391 -6.30047,5.82054 -8.22121,5.82054 -1.45573,0 -6.31597,-1.33909 -10.80055,-2.97576 -5.13671,-1.87467 -11.722,-3.34193 -17.79713,-3.96535 -7.58833,-0.77871 -10.91808,-0.68762 -15.62502,0.42744 -3.28991,0.77936 -9.32298,2.56377 -13.40681,3.96535 -4.08384,1.40158 -8.43525,2.54832 -9.66982,2.54832 -1.41847,0 -4.18103,-2.02889 -7.50557,-5.51226 -2.95018,-3.09114 -7.83029,-6.79619 -11.11071,-8.43544 -3.21739,-1.60775 -8.3867,-3.44984 -11.48736,-4.09353 -3.10066,-0.6437 -8.40209,-0.99432 -11.78095,-0.77917 -4.12832,0.26287 -7.94542,1.30292 -11.63729,3.17084 -3.02164,1.52881 -6.9831,4.17144 -8.80325,5.87251 -1.82014,1.70108 -4.83272,6.27161 -6.69463,10.15674 -2.7836,5.80842 -3.38428,8.22415 -3.37969,13.5921 0.003,3.59051 0.47108,8.20434 1.04003,10.25295 0.56895,2.04861 2.47894,5.60853 4.24442,7.91092 1.80334,2.35176 5.81854,5.62589 9.16278,7.47162 3.27404,1.807 7.77404,3.58547 10,3.95215 2.22595,0.36669 4.60969,1.12092 5.29719,1.67608 0.6875,0.55516 1.25,2.12307 1.25,3.48424 0,1.36117 -1.81248,5.95868 -4.02774,10.21668 -2.21525,4.25799 -6.04025,10.80593 -8.5,14.55096 -2.45974,3.74503 -4.47226,6.96743 -4.47226,7.16088 0,0.19345 1.575,0.35173 3.5,0.35173 1.925,0 3.49513,0.3375 3.48918,0.75 -0.006,0.4125 -0.65386,2.86897 -1.43978,5.45883 -1.42896,4.70883 -1.42896,4.70883 2.916,9.54146 2.38973,2.65795 5.97467,5.7103 7.96653,6.78299 1.99187,1.07269 3.49704,2.59174 3.34483,3.37567 -0.15222,0.78392 -0.72676,1.52782 -1.27676,1.65311 -0.55,0.12528 -2.02785,-0.0624 -3.28412,-0.41714 z m -0.54921,-74.81159 c -0.36667,-0.36666 -0.66667,-1.25482 -0.66667,-1.97368 0,-0.71886 -1.96708,-3.2741 -4.37128,-5.6783 -2.40421,-2.40421 -4.92379,-6.04538 -5.59907,-8.0915 -0.67527,-2.04611 -0.94994,-5.20119 -0.61037,-7.01128 0.33958,-1.81009 1.97147,-5.33533 3.62643,-7.83387 1.65496,-2.49853 4.52722,-5.26322 6.38279,-6.14374 1.85557,-0.88053 5.63094,-1.60096 8.38972,-1.60096 2.75878,0 6.99466,0.84817 9.41306,1.88481 2.41839,1.03665 5.6057,3.32117 7.0829,5.07673 1.4772,1.75555 2.68582,3.83238 2.68582,4.61519 0,0.7828 0.9,1.42327 2,1.42327 1.1,0 1.99629,0.5625 1.99175,1.25 -0.005,0.6875 -1.82951,2.23879 -4.05549,3.44732 -2.22599,1.20852 -4.80978,1.9228 -5.74176,1.58727 -0.93197,-0.33552 -2.932,-1.46746 -4.4445,-2.51541 -2.75,-1.90537 -2.75,-1.90537 -2.75,0.96273 0,1.57745 0.55874,3.42683 1.24164,4.10973 0.98886,0.98886 0.93796,1.44107 -0.25,2.22119 -0.8204,0.53876 -2.94669,0.72603 -4.72508,0.41616 -3.12274,-0.54411 -3.21358,-0.46411 -2.65341,2.33676 0.45187,2.25936 0.006,3.47388 -2.01656,5.49675 -1.42812,1.42812 -2.59659,3.51705 -2.59659,4.64205 0,1.125 -0.375,2.04545 -0.83333,2.04545 -0.45834,0 -1.13334,-0.3 -1.5,-0.66667 z m 153.33333,-1.10765 c 0,-1.04079 -1.31497,-3.20485 -2.92215,-4.80901 -2.31593,-2.31159 -2.804,-3.51038 -2.35263,-5.77849 0.54048,-2.71594 0.42181,-2.83073 -2.32786,-2.25178 -1.59355,0.33553 -3.43528,0.26198 -4.09274,-0.16343 -0.85305,-0.55198 -0.94047,-1.9037 -0.30526,-4.72015 0.48957,-2.17067 0.74275,-4.09405 0.56262,-4.27417 -0.18012,-0.18013 -2.01805,0.81974 -4.08429,2.22192 -2.06623,1.40219 -4.03149,2.54203 -4.36724,2.53298 -0.33575,-0.009 -2.37547,-1.02155 -4.53271,-2.25 -2.15724,-1.22845 -4.10724,-2.79605 -4.33333,-3.48355 -0.22806,-0.69348 0.40515,-1.25343 1.42226,-1.2577 1.09249,-0.005 2.77359,-1.65395 4.16015,-4.0816 1.70041,-2.97715 3.7195,-4.72232 7.5,-6.48253 3.48231,-1.62136 6.97088,-2.4106 10.67318,-2.41466 3.70846,-0.004 6.5456,0.6315 8.70998,1.95119 1.76549,1.07647 4.46549,3.85443 6,6.17323 2.21527,3.34751 2.79002,5.36406 2.79002,9.78904 0,4.66157 -0.53189,6.33898 -3.25215,10.25632 -1.78868,2.57581 -4.15118,4.96864 -5.25,5.31739 -1.09882,0.34875 -1.99785,1.47721 -1.99785,2.50769 0,1.03048 -0.45,2.15171 -1,2.49163 -0.55,0.33992 -1,-0.23352 -1,-1.27432 z"
       id="path996" />
    <path
       id="text2765"
       style="font-style:normal;font-variant:normal;font-weight:normal;font-stretch:normal;font-size:113.333px;font-family:'Peaches For Breakfast';-inkscape-font-specification:'Peaches For Breakfast, Normal';font-variant-ligatures:normal;font-variant-caps:normal;font-variant-numeric:normal;font-variant-east-asian:normal;fill:#000000;fill-opacity:1;stroke-width:3.77953;stroke-dasharray:45.3543, 45.3543"
       d="m 260.29324,55.481375 c -1.41246,0.142917 -2.60857,1.39841 -2.61261,2.837947 -0.0644,2.333665 0.48339,4.63629 0.81154,6.937146 1.18846,6.900297 2.57311,13.764728 3.87578,20.64443 -0.85935,6.837356 -1.77453,13.679099 -2.01759,20.573202 -0.0773,3.52068 -0.25204,7.11705 0.6196,10.56089 0.37504,1.94901 2.44459,3.38695 4.39533,2.90855 0.85566,-0.19354 1.56392,-0.87328 1.94634,-1.61676 0.0894,-0.97717 0.30134,-1.94552 0.21457,-2.94002 -0.14199,-3.65747 -0.23314,-7.32048 3e-4,-10.97708 0.16343,-3.52758 0.4836,-7.047752 0.9543,-10.547603 0.14462,-0.988309 0.32604,-2.239401 0.51608,-3.32364 0.8989,-5.545708 2.62533,-10.919047 4.75044,-16.108673 1.82182,-4.759161 3.784,-9.473311 5.31113,-14.337852 0.27694,-0.840139 0.2435,-1.778367 -0.31413,-2.495765 -0.91596,-1.040906 -2.62036,-0.951599 -3.60708,-0.04132 -1.67879,1.566539 -2.41822,3.83433 -3.28472,5.899148 -1.40846,3.842781 -2.9168,7.654846 -4.58027,11.396322 -1.299,-5.526902 -2.05026,-11.20064 -3.89381,-16.587245 -0.44882,-1.292331 -1.32652,-2.796804 -2.86958,-2.804997 -0.0718,0.0078 -0.14375,0.01554 -0.21562,0.02332 z m -16.19619,1.651677 c -4.52692,0.520754 -9.04586,1.178921 -13.56322,1.795914 -1.50698,0.258694 -3.06032,0.33518 -4.52131,0.806418 -1.41187,0.877634 -2.00063,2.912579 -1.01585,4.314294 0.96538,1.574182 2.99306,1.775536 4.66812,1.690762 0.94737,-0.01994 1.8886,-0.141722 2.83447,-0.18861 0.27392,4.64932 0.48617,9.302011 0.91307,13.940992 1.02448,11.731358 1.97042,23.475698 3.45765,35.159688 0.2844,1.58949 0.28742,3.30602 1.09876,4.74083 1.04098,1.22278 3.14732,1.31464 4.15851,0.005 0.82234,-0.96567 0.52187,-2.37186 0.53732,-3.55003 -0.41347,-7.82234 -1.28961,-15.61039 -1.87238,-23.421115 -0.55678,-7.246763 -1.1222,-14.328583 -1.38205,-21.592319 -0.0449,-1.994503 -0.1335,-3.996857 0.0484,-5.986792 2.06809,-0.743097 4.33769,-0.857734 6.33695,-1.784165 2.00639,-1.116265 2.01452,-4.425732 -0.009,-5.518796 -0.50637,-0.293534 -1.10697,-0.420841 -1.68901,-0.411591 z m -34.1512,3.230543 c -1.81606,-0.06606 -3.50625,1.396967 -3.64223,3.221561 -0.3202,3.011233 0.20069,6.03355 0.549,9.020767 1.62057,11.355582 3.97153,22.590713 6.28001,33.821247 0.99209,4.53139 1.859,9.105 3.24256,13.53779 0.56186,1.70914 1.99321,3.50664 3.95337,3.45005 1.50683,-0.13003 2.82619,-1.49414 2.9489,-2.98331 -0.0765,-2.84553 -0.70494,-5.64455 -1.13542,-8.45138 -1.82313,-10.38282 -3.94531,-20.713659 -5.56695,-31.132115 -0.5665,-3.806414 -1.08898,-7.788885 -1.74908,-11.647012 -0.46103,-2.411186 -0.80658,-4.914885 -1.91936,-7.129516 -0.59499,-1.033146 -1.76458,-1.721766 -2.9608,-1.708082 z m 116.27657,6.761976 c -2.26084,-0.01606 -4.12343,1.726001 -4.93369,3.729784 -2.65825,5.804707 -4.8191,11.820939 -7.09823,17.780651 -3.61081,9.70455 -7.13532,19.447414 -10.26252,29.319844 -0.50328,1.84225 -1.25894,3.67139 -1.30101,5.60001 0.14692,2.01134 1.70695,3.71233 3.62934,4.22377 1.69317,0.68753 3.60929,0.46738 5.21911,-0.33922 2.64295,-1.31827 4.96596,-3.21665 7.07663,-5.26497 3.69413,-3.60288 6.2732,-8.44616 6.69468,-13.63053 0.15826,-2.77537 0.0742,-5.75526 -1.36728,-8.21989 -0.24959,-0.416039 -0.53513,-0.811596 -0.86241,-1.170062 2.85156,-2.070804 5.13298,-4.818554 7.24844,-7.610106 2.71861,-3.737836 5.06988,-8.060926 5.19556,-12.785044 0.10147,-3.057347 -1.1779,-6.021454 -3.18007,-8.291308 -1.46967,-1.826041 -3.63695,-3.339193 -6.05855,-3.342929 z m -137.5864,-1.185007 c -1.13303,0.117895 -1.88128,1.248896 -1.99575,2.283794 0.58083,1.727705 0.90174,3.52672 1.42554,5.272593 0.32112,1.265789 0.83626,2.474015 1.15487,3.74141 -2.78356,-2.346723 -5.48198,-4.826124 -8.51552,-6.850688 -1.206,-0.807297 -2.97403,-1.160294 -4.12448,-0.06539 -0.79866,0.644476 -1.4379,1.591477 -1.23339,2.662213 0.42109,2.915072 1.3606,5.728051 2.13,8.564952 3.17659,10.897848 6.63115,21.713522 9.9954,32.553282 1.40251,4.25401 2.56176,8.6076 4.39537,12.70422 0.79808,1.77744 2.31106,3.4401 4.28857,3.81765 1.68155,0.32007 3.60051,-1.17302 3.2105,-2.96028 -0.66476,-3.22443 -1.74092,-6.34989 -2.67148,-9.50472 -2.81042,-8.99057 -5.65923,-17.96999 -8.40678,-26.981035 -0.59672,-1.927084 -1.1791,-3.85852 -1.76611,-5.788588 2.44252,1.952275 4.9018,3.883221 7.3639,5.810818 3.68224,11.273955 7.29264,22.570945 10.86077,33.881495 1.49512,0.64257 2.98633,1.90217 4.70942,1.49748 1.21774,-0.26945 2.07971,-1.56335 1.77485,-2.79213 -0.69931,-3.32759 -1.83476,-6.54756 -2.81838,-9.79914 -3.82802,-11.98057 -7.75693,-23.92902 -11.90791,-35.801713 -1.21374,-3.296021 -2.27934,-6.666251 -3.84263,-9.818432 -0.6907,-1.203471 -1.95171,-2.078249 -3.27678,-2.438177 -0.25127,-0.0066 -0.5036,-0.06597 -0.74998,0.01038 z m 139.39401,8.407928 c 1.1098,1.533615 1.67252,3.48758 1.23095,5.361633 -0.87937,4.226498 -3.44305,7.87002 -6.20191,11.09754 -0.43791,0.509681 -0.88842,1.008428 -1.3554,1.491628 1.98177,-6.071344 4.11112,-12.093131 6.17499,-18.136817 0.0504,0.06201 0.1009,0.124011 0.15137,0.186016 z m 23.16865,3.344241 c -0.95634,-0.04756 -1.82419,0.47064 -2.295,1.295846 -2.145,3.521123 -3.91442,7.256916 -5.80197,10.919413 -5.81261,11.621368 -11.52914,23.290438 -17.15323,35.003988 -0.97407,2.19332 -2.2399,4.36384 -2.46547,6.79425 -0.11103,1.99446 1.68529,3.3841 3.28358,4.20764 2.2337,1.13416 4.5177,2.2348 6.94568,2.8824 0.81956,0.18273 1.66516,-0.0712 2.23415,-0.68993 0.41345,-0.35753 0.45785,-1.0761 0.43189,-1.60027 -0.23292,-1.62401 -1.91138,-2.38351 -3.14161,-3.19399 -0.77931,-0.47534 -1.61445,-0.86437 -2.33708,-1.42845 2.05692,-4.53931 4.31308,-8.92663 6.5344,-13.36602 1.56926,-3.03904 3.08785,-6.11264 4.88061,-9.02811 1.69892,0.24781 3.55546,0.999 5.3401,0.60708 0.59361,-0.12847 1.05871,-0.61391 1.3833,-1.07943 0.28525,-0.84173 0.19023,-1.79976 -0.44804,-2.45824 -1.06149,-1.06329 -2.42274,-1.76369 -3.72634,-2.48281 2.60632,-5.980984 5.25494,-11.934539 8.17019,-17.779468 0.27903,-0.568402 0.55804,-1.136803 0.83707,-1.705205 2.30911,1.066339 4.52818,2.401364 6.99713,3.070286 0.87573,0.178092 1.84601,-0.06553 2.36856,-0.826446 0.38733,-0.340366 0.3316,-0.972819 0.40536,-1.439316 -0.26095,-1.734834 -1.98743,-2.604657 -3.31349,-3.476208 -2.2082,-1.277244 -4.41144,-2.579541 -6.7236,-3.661241 -0.76016,-0.321867 -1.57286,-0.580058 -2.40619,-0.565769 z M 160.68064,76.457736 c -1.93756,0.129199 -3.55062,1.991504 -3.28358,3.940632 0.32844,2.907599 1.47036,5.644055 2.44447,8.380719 3.80607,9.910254 8.25429,19.556623 12.66848,29.205843 2.34907,5.00844 4.57928,10.08718 7.31649,14.9001 0.87834,1.54582 2.52691,3.02555 4.42054,2.77988 1.63932,-0.24862 2.78816,-2.0564 2.55995,-3.64302 -0.72158,-2.75414 -1.96521,-5.33908 -3.01973,-7.97615 -4.93497,-11.59886 -10.26516,-23.03577 -14.71969,-34.834038 -1.49881,-3.654765 -2.79475,-7.43652 -4.88565,-10.808863 -0.72703,-1.228427 -2.03312,-2.106144 -3.50128,-1.945103 z m -16.42431,9.141188 c -1.5858,0.230736 -2.9144,1.257384 -4.30359,1.99061 -2.87146,1.730406 -5.77297,3.44674 -8.43185,5.492048 -1.13857,0.97441 -2.22208,2.472907 -1.70441,4.040364 0.80478,2.758762 2.32602,5.240014 3.66644,7.762864 7.00788,12.47 14.85355,24.44361 22.81865,36.31669 1.31017,1.84412 2.46367,3.8326 4.04061,5.46563 1.30763,1.31512 3.56333,1.3859 4.95972,0.17154 1.09967,-0.87888 1.55758,-2.50539 0.87253,-3.77961 -1.87125,-3.91123 -4.3197,-7.50887 -6.52548,-11.23345 -2.39254,-4.01928 -4.99303,-7.92373 -7.13391,-12.08604 0.7515,-1.27003 2.15692,-2.12714 3.1116,-3.28645 1.01292,-1.04421 1.68709,-2.72924 0.82112,-4.0649 -0.44092,-0.63564 -1.18823,-1.00428 -1.96561,-0.90909 -1.38925,0.18766 -2.47825,1.20387 -3.62171,1.93868 -0.47498,0.34741 -0.96312,0.67646 -1.44335,1.01655 -3.38274,-5.40026 -6.66783,-10.71936 -9.96716,-16.165573 -0.45025,-0.716453 -0.85667,-1.461414 -1.35137,-2.148953 2.70303,-2.207375 5.91562,-3.80368 8.30005,-6.389874 0.68964,-0.764573 0.9371,-1.880457 0.49525,-2.826867 -0.54045,-0.909911 -1.60076,-1.337435 -2.63753,-1.304159 z m 245.96166,14.842136 c -2.17357,0.27308 -3.78935,1.94389 -5.46684,3.19924 -8.21144,6.50904 -16.39021,13.05959 -24.66035,19.49402 -1.63237,-0.26777 -3.46298,-1.14707 -5.01607,-0.15723 -1.25089,0.84878 -1.35654,2.7256 -0.40238,3.84138 0.70721,0.47124 0.21587,0.82519 -0.30501,1.19785 -4.22438,3.65134 -8.84228,6.90978 -12.50854,11.15803 -1.09635,1.34945 -2.28416,3.13397 -1.62647,4.93887 0.72756,1.74801 3.04145,2.52786 4.69198,1.60193 2.21808,-1.3285 4.05523,-3.19431 6.02923,-4.84858 3.55041,-3.05715 7.04434,-6.2104 10.90525,-8.87658 0.40765,-0.3214 0.86116,-0.58685 1.34417,-0.23656 2.14382,0.91446 4.307,1.8427 6.2534,3.14024 -3.324,6.49905 -6.80031,12.92054 -10.03164,19.46626 -0.60811,1.07174 -0.96059,2.45312 -0.22722,3.55956 0.70854,1.19071 2.33095,1.78186 3.56468,1.04145 1.62105,-0.99426 2.37497,-2.86947 3.20405,-4.49733 2.36603,-4.89901 4.98494,-9.72132 7.60373,-14.43985 0.443,-0.79136 0.88932,-1.58087 1.33359,-2.37152 1.2841,0.50522 2.94888,0.39372 3.80245,-0.81483 0.93738,-1.30764 0.26941,-3.07527 -0.84267,-4.04542 -0.192,-0.4458 0.38514,-0.99329 0.53684,-1.46129 2.3985,-4.33892 5.00383,-8.56072 7.46216,-12.86623 2.37446,-4.16613 4.88305,-8.26388 7.02537,-12.55613 0.60301,-1.33136 1.40098,-2.99233 0.51051,-4.37434 -0.69808,-1.01103 -2.05335,-1.13307 -3.18023,-1.0929 z m -72.00726,2.228 c 1.36365,0.58628 1.50805,2.31586 1.45075,3.61134 -0.12831,2.04953 -0.85724,3.91718 -1.50225,5.79723 -1.10343,2.81914 -2.92997,5.32719 -5.27025,7.24714 -0.42283,0.37117 -0.85565,0.73091 -1.29234,1.08543 1.78213,-5.59645 3.66506,-11.16695 5.81486,-16.63376 0.24221,-0.28635 0.30518,-1.45922 0.79923,-1.10738 z m -203.40186,2.2995 c -1.39993,-0.12258 -2.61079,1.23361 -2.38476,2.61156 -0.0826,0.8384 0.86466,1.26864 1.16662,1.99141 1.32256,1.90139 2.72801,3.74356 4.21247,5.52269 0.82179,0.81904 -0.24803,0.25318 -0.75054,0.10267 -3.15542,-1.03871 -6.26939,-2.28404 -9.54153,-2.90944 -1.40328,-0.28563 -3.07696,0.18467 -3.68274,1.5902 -0.42232,0.81989 -0.67198,1.79275 -0.1963,2.64762 1.3734,2.52721 3.24749,4.73958 4.94578,7.05029 6.87572,8.94821 14.00248,17.69997 21.03505,26.52396 2.96313,3.57695 5.72762,7.34061 9.02412,10.62485 1.40282,1.40107 3.44491,2.43622 5.46222,2.06408 1.64278,-0.31205 2.88309,-2.31666 1.96139,-3.83921 -1.71425,-2.69451 -3.80727,-5.12711 -5.75293,-7.65497 -5.57335,-6.96375 -11.19713,-13.88655 -16.72652,-20.88567 -1.65117,-2.07394 -3.29892,-4.15044 -4.93761,-6.23427 2.98629,0.92687 5.98031,1.8271 8.97551,2.72466 7.53614,9.15895 15.01584,18.36385 22.45989,27.59777 1.64175,0.053 3.52641,0.69898 4.979,-0.36058 1.04032,-0.72311 1.30084,-2.27224 0.53778,-3.29338 -2.12213,-3.16874 -4.62249,-6.06551 -6.98346,-9.05644 -8.2125,-10.05373 -16.46465,-20.07746 -24.97005,-29.88536 -1.90978,-2.07484 -3.66296,-4.33455 -5.86753,-6.10993 -0.87962,-0.51763 -1.94235,-0.81802 -2.96586,-0.82251 z m 264.46679,13.18604 c -2.11313,3.72099 -4.20138,7.46238 -6.54311,11.04611 -1.65363,-0.49663 -3.21629,-1.24683 -4.75972,-2.01125 3.92875,-3.42899 7.9023,-6.8056 11.91604,-10.13465 -0.2044,0.3666 -0.4088,0.73319 -0.61321,1.09979 z m 30.88626,0.89009 c -1.95929,0.45129 -3.3763,2.0344 -4.8145,3.33383 -9.58318,9.25224 -18.97772,18.70255 -28.1757,28.33806 -2.91556,3.12011 -5.92822,6.17415 -8.5117,9.58155 -0.88023,1.00976 -1.28505,2.52331 -0.5582,3.73133 0.78254,1.33188 2.22455,2.0772 3.326,3.11432 4.16597,-4.2556 8.4233,-8.42351 12.5123,-12.75248 -1.72955,5.82617 -3.68571,11.59415 -5.07675,17.51411 -0.22279,1.057 -0.51842,2.30317 0.0931,3.26205 0.72386,0.94492 2.02776,1.51062 3.15878,0.95286 1.50531,-0.79435 1.81109,-2.64432 2.365,-4.10105 2.23591,-7.35389 4.13239,-14.84228 7.13837,-21.93521 0.53495,-1.10137 0.97666,-2.32829 1.85773,-3.19879 1.79144,-0.80057 3.81189,-0.80952 5.67324,-1.39658 5.09425,-1.35346 9.99844,-4.00226 13.36491,-8.12901 1.42193,-1.85449 2.6014,-3.96513 2.89143,-6.31884 0.36989,-2.7776 0.8164,-5.77928 -0.44208,-8.4066 -0.57979,-1.50017 -1.52463,-3.1059 -3.21545,-3.48626 -0.51295,-0.10784 -1.06883,-0.21344 -1.58646,-0.10326 z m -0.40539,9.55338 c -0.49197,2.82791 -2.46264,5.08172 -4.41627,7.05709 -1.79971,1.60813 -4.09455,2.49131 -6.27763,3.44356 -0.1649,-0.0362 0.74767,-0.78139 0.96751,-1.0706 3.21456,-3.27539 6.46249,-6.5189 9.76398,-9.70684 -0.0126,0.0922 -0.025,0.18452 -0.0376,0.27679 z M 92.750442,124.86749 c -2.321791,0.0303 -4.119174,2.71533 -3.158277,4.85933 1.087813,2.42831 2.988585,4.36625 4.673558,6.38681 7.005957,7.79773 14.556477,15.08148 22.069237,22.3829 4.34469,4.1363 8.58906,8.39559 13.22682,12.20878 1.38881,1.17015 3.4591,2.01687 5.20439,1.15602 1.47658,-0.78549 1.91911,-2.86085 1.19754,-4.28981 -1.57184,-2.23205 -3.5965,-4.09934 -5.4488,-6.09355 -8.91449,-9.1243 -18.1556,-17.93904 -26.69653,-27.42297 -2.74781,-2.87985 -5.342906,-5.96676 -8.558706,-8.34529 -0.729787,-0.52595 -1.594746,-0.89992 -2.509232,-0.84222 z" />
    <path
       id="text3084"
       style="font-style:normal;font-variant:normal;font-weight:normal;font-stretch:normal;font-size:113.333px;line-height:2327.06px;font-family:'Peaches For Breakfast';-inkscape-font-specification:'Peaches For Breakfast, Normal';font-variant-ligatures:normal;font-variant-caps:normal;font-variant-numeric:normal;font-variant-east-asian:normal;letter-spacing:10.09px;fill:#000000;fill-opacity:1;stroke-width:3.77953;stroke-dasharray:45.3543, 45.3543"
       d="m 190.1652,357.85636 c -1.0301,0.11198 -1.99544,0.66727 -2.42563,1.64053 -1.9346,4.00217 -3.40237,8.21035 -5.01197,12.34927 -4.4311,11.8642 -8.82329,23.744 -12.90935,35.7322 -0.78247,2.51553 -1.76681,4.99922 -2.16321,7.61218 -0.12619,2.03762 1.85975,3.61737 3.78682,3.64321 4.77043,0.19426 9.26699,-2.24656 12.60267,-5.50389 3.24095,-3.16673 5.87204,-6.95265 7.82542,-11.03637 2.41718,-5.18735 4.40746,-10.57022 6.1212,-16.02774 0.80305,-2.58576 1.41933,-5.24325 1.50293,-7.95971 0.26753,-4.77505 0.21284,-9.78511 -1.79504,-14.22121 -1.13817,-2.55449 -3.22852,-4.61869 -5.66574,-5.94423 -0.57713,-0.27685 -1.23487,-0.37812 -1.8681,-0.28424 z m 2.82065,10.17997 c 1.21062,4.03055 0.85335,8.32081 0.35991,12.43878 -0.38515,3.43279 -1.74041,6.65157 -2.86569,9.88896 -0.67458,1.81518 -1.37405,3.62106 -2.11343,5.41089 -0.36167,0.84714 -0.82895,1.95408 -1.25798,2.88918 -1.9259,4.25689 -4.3331,8.44662 -7.88942,11.55317 -0.61182,0.51685 -1.26754,0.98338 -1.96881,1.37132 4.35097,-13.32213 9.07506,-26.51896 13.81945,-39.70487 0.55219,-1.50479 1.12178,-3.08872 1.66167,-4.53984 0.0848,0.2308 0.16953,0.46161 0.2543,0.69241 z m 19.0059,-2.08547 c -1.03897,0.08 -2.08269,0.6337 -2.40964,1.67906 -1.21833,3.38323 -1.9952,6.90813 -2.92594,10.37793 -3.29365,13.07496 -6.42786,26.18915 -9.49459,39.31889 -0.48704,2.41992 -1.28165,4.8695 -1.01392,7.3623 0.25514,1.97154 2.2728,2.98468 3.99456,3.45734 2.4732,0.6374 4.98812,1.23118 7.54806,1.33982 0.7794,-0.0349 1.58543,-0.3368 1.94723,-1.07125 0.4265,-0.39673 0.26089,-1.0503 0.23683,-1.56268 -0.49713,-1.62426 -2.33537,-2.06753 -3.74778,-2.58637 -0.89365,-0.30815 -1.82617,-0.50975 -2.68359,-0.91656 1.27156,-5.94769 2.79138,-11.84074 4.32033,-17.72683 0.60719,-2.21639 1.18244,-4.44612 1.94888,-6.61417 1.77806,-0.12794 3.68308,0.19794 5.34785,-0.57062 0.55564,-0.25865 0.9059,-0.84465 1.12649,-1.37015 0.0956,-0.99146 -0.34727,-1.99896 -1.26014,-2.45932 -1.21882,-0.67067 -2.57019,-1.06293 -3.90282,-1.44083 1.23363,-6.33758 2.50522,-12.66208 4.05866,-18.93458 0.16393,-0.68015 0.32785,-1.3603 0.49179,-2.04046 2.48697,0.53986 4.94533,1.356 7.50175,1.47552 0.85206,-0.0336 1.7571,-0.41145 2.08235,-1.24951 0.36891,-0.4312 0.16708,-1.07114 0.12801,-1.5746 -0.65935,-1.66041 -2.57072,-2.12624 -4.08297,-2.69604 -2.40538,-0.74857 -4.80635,-1.5389 -7.26912,-2.07717 -0.63855,-0.1206 -1.29402,-0.18774 -1.94228,-0.11972 z m 110.8141,-7.21709 c -1.8425,0.32013 -3.52851,1.38577 -4.78365,2.74967 -2.3445,2.69752 -2.53383,6.58697 -1.86145,9.94148 0.90509,4.41049 3.13966,8.44956 5.91496,11.95506 3.47382,4.57309 7.56713,8.62345 11.14624,13.10963 0.29267,0.36855 0.79144,0.98927 1.07948,1.3735 2.3161,3.08952 4.69859,6.27755 5.85964,10.00805 0.42735,1.55065 0.60853,3.40313 -0.3596,4.78628 -0.91352,0.78331 -2.20816,1.29549 -3.41671,1.10452 -1.40805,-0.45705 -2.42103,-1.66114 -3.81019,-2.12986 -1.37232,-0.44443 -2.86676,0.5186 -3.17323,1.89807 -0.53749,1.88345 0.9195,3.60791 2.38784,4.59107 2.86836,2.05874 6.8009,2.93153 10.12025,1.46548 2.84715,-1.06486 4.72274,-3.86336 5.18644,-6.79755 0.79956,-4.73153 -0.72652,-9.53317 -2.92695,-13.68352 -3.05807,-5.81506 -7.2826,-10.90986 -11.64331,-15.78562 -0.88349,-1.02047 -1.91624,-2.22067 -2.81637,-3.34628 -2.61358,-3.32805 -5.24804,-6.78322 -6.65509,-10.82024 -0.40133,-1.38175 -0.61921,-2.96884 -0.0256,-4.32253 0.41534,-0.74593 1.37085,-0.51284 1.92256,-0.0699 1.0802,0.73302 2.67117,1.2424 3.76356,0.26037 1.21079,-1.04448 0.79226,-2.94012 -0.11204,-4.05428 -1.30496,-1.68925 -3.51077,-2.67796 -5.64067,-2.25258 l -0.0993,0.0122 z m -85.08092,11.46669 c -3.10803,0.45101 -5.51222,2.90786 -6.79643,5.65252 -1.94101,4.05844 -2.18977,8.71435 -1.72424,13.12489 0.98553,7.60749 3.66861,14.85553 4.94135,22.407 0.57737,3.63139 1.17244,7.38644 0.41243,11.0349 -0.37357,1.46027 -1.06378,3.10798 -2.52113,3.75295 -1.14112,0.22641 -2.46321,0.10245 -3.42942,-0.58659 -1.04867,-1.05366 -1.41092,-2.58772 -2.43392,-3.64571 -1.01247,-1.01645 -2.77768,-0.8505 -3.68057,0.23069 -1.32797,1.39926 -0.85508,3.56499 -0.0225,5.09711 1.59562,3.15008 4.6708,5.74698 8.2916,5.99588 2.93658,0.36582 5.84027,-1.13171 7.61424,-3.42876 2.94418,-3.75806 3.83846,-8.69791 3.82752,-13.36657 -0.01,-7.24373 -1.764,-14.32459 -3.55951,-21.29515 -0.48272,-2.02106 -0.95924,-4.32668 -1.27133,-6.32044 -0.14748,-0.99564 -0.26465,-1.79168 -0.3653,-2.82836 -0.20989,-2.65339 -0.45131,-5.45372 0.52413,-7.9908 0.45267,-0.87552 0.89112,-2.1613 2.02407,-2.26759 1.03429,0.11517 1.22463,1.388 1.90668,1.99498 0.81143,1.07218 2.55359,1.3776 3.50832,0.34012 1.27603,-1.39102 0.86225,-3.55966 -0.011,-5.05526 -1.24074,-2.29912 -4.09398,-3.25803 -6.57864,-2.91828 -0.21876,0.0242 -0.43752,0.0483 -0.65627,0.0725 z m 65.08829,-4.67463 c -0.82324,0.29307 -1.32601,1.16127 -1.50201,1.95269 0.42883,1.77251 0.58425,3.59457 0.95676,5.37983 0.21133,1.28248 0.61388,2.52614 0.8188,3.81074 -2.56949,-2.58051 -5.03588,-5.28987 -7.88144,-7.57389 -1.1309,-0.90589 -2.85096,-1.41774 -4.09619,-0.43122 -0.82152,0.55771 -1.54816,1.39468 -1.46584,2.45005 0.12175,2.84248 0.80003,5.62836 1.28815,8.42385 2.21885,11.27432 4.74181,22.47156 7.1636,33.70099 1.02224,4.35855 1.7944,8.79505 3.25834,13.03548 0.63364,1.84137 1.99252,3.62813 3.9254,4.18421 1.64254,0.46931 3.69491,-0.83665 3.46957,-2.65051 -0.37563,-3.30889 -1.19132,-6.5527 -1.84364,-9.81532 -2.01804,-9.2347 -4.06761,-18.46363 -6.01763,-27.71365 -0.41055,-1.90684 -0.80604,-3.8168 -1.20779,-5.72554 2.25994,2.16015 4.5412,4.29678 6.82275,6.43413 2.67479,11.55539 5.27454,23.12772 7.83352,34.70926 1.43368,0.77534 2.8142,2.16464 4.56872,1.90515 1.23384,-0.1662 2.19737,-1.37676 2.0044,-2.62333 -0.40521,-3.37624 -1.25092,-6.68364 -1.94341,-10.00929 -2.76509,-12.30263 -5.63336,-24.58381 -8.73208,-36.8073 -0.89788,-3.32998 -1.65923,-6.7148 -2.90163,-9.93749 -0.55839,-1.30181 -1.76297,-2.30977 -3.07303,-2.79746 -0.47101,-0.1028 -1.00574,-0.12606 -1.44532,0.0986 z m -46.36147,5.48852 c -1.61636,0.12247 -2.83732,1.49936 -3.17513,3.02204 -0.91082,3.46433 -1.06953,7.07051 -1.3543,10.62635 -0.71784,11.76682 -0.84085,23.56009 -0.92633,35.3454 0.0366,3.69732 -0.0685,7.41359 0.35863,11.09236 0.28136,1.70351 1.38966,3.65483 3.28649,3.80725 1.64616,0.0918 3.29466,-1.25835 3.4279,-2.92317 0.53315,-4.4044 0.57834,-8.85174 0.76504,-13.2805 0.34471,-10.65155 0.54295,-21.25621 1.40374,-31.87777 0.22291,-4.10802 0.71061,-8.24344 0.25601,-12.35133 -0.0969,-1.6781 -1.35771,-3.26748 -3.0786,-3.45475 -0.31929,-0.0297 -0.64417,-0.0463 -0.96345,-0.006 z m 22.41521,-0.68258 c -2.44052,0.19922 -4.72073,1.61278 -5.93394,3.748 -2.0058,3.39754 -3.06392,7.25547 -3.95844,11.06967 -1.36761,6.04799 -1.79137,12.30631 -1.17596,18.47879 0.49101,4.54332 1.03867,9.08813 1.89232,13.57928 0.77576,3.69017 1.62837,7.51684 3.82502,10.65654 2.11518,2.92097 5.53912,5.17451 9.23871,5.08534 2.51195,-0.0134 4.74377,-1.8101 5.59418,-4.1242 1.15927,-2.97008 1.01314,-6.23897 0.94994,-9.3704 -0.2166,-4.47138 -0.66703,-8.93125 -1.21698,-13.37251 -0.33012,-1.75558 -0.60422,-3.84286 -2.16198,-4.96225 -2.05975,-1.33183 -4.81101,-1.15716 -6.91315,-0.0337 -1.31065,0.68585 -2.03676,2.5457 -1.04477,3.78223 0.79648,1.11575 2.30957,1.13272 3.54787,1.01348 0.86621,3.70189 1.16782,7.50917 1.55401,11.28413 0.26261,2.99693 0.3126,6.11421 -0.67091,8.99416 -0.1248,0.41899 -0.47437,0.9411 -0.9712,0.63316 -1.62024,-1.01463 -2.26554,-2.9767 -2.82755,-4.70588 -1.16537,-4.08034 -1.57943,-8.33184 -1.90725,-12.54776 -0.19839,-3.1037 -0.54198,-6.33827 -0.66859,-9.35596 -0.17079,-2.89327 -0.1382,-5.80464 0.37094,-8.6656 0.52332,-3.40219 1.22878,-6.81724 1.97839,-10.10499 0.48541,-1.78005 0.79151,-3.70164 1.86453,-5.24059 0.3936,-0.4502 1.09181,0.0745 1.33548,0.45466 0.90986,1.25852 2.5899,2.2732 4.14042,1.56674 1.44609,-0.6534 1.97,-2.57589 1.17715,-3.92532 -1.56701,-2.76535 -4.87508,-4.35941 -8.01824,-3.93703 z" />
    <path
       style="opacity:1;fill:none;fill-opacity:1;stroke:#000000;stroke-width:6.8;stroke-dasharray:none;stroke-opacity:1"
       id="path3253"
       d="M 58.514285,144.03517 27.92709,129.57825 -5.6263728,133.90769 8.8305433,103.3205 4.5010995,69.767035 35.088295,84.223951 68.641757,79.894507 54.184841,110.4817 Z"
       transform="matrix(0.4732552,0.22557479,-0.09281547,0.57340027,89.930304,123.42728)" />
    <path
       style="fill:none;fill-opacity:1;stroke:#000000;stroke-width:6.8;stroke-dasharray:none;stroke-opacity:1"
       id="path3253-52"
       d="M 58.514285,144.03517 27.92709,129.57825 -5.6263728,133.90769 8.8305433,103.3205 4.5010995,69.767035 35.088295,84.223951 68.641757,79.894507 54.184841,110.4817 Z"
       transform="matrix(0.53587094,0.08070697,0.07972288,0.61290132,68.484828,236.68633)" />
    <path
       style="fill:none;fill-opacity:1;stroke:#000000;stroke-width:6.8;stroke-dasharray:none;stroke-opacity:1"
       id="path3253-52-7"
       d="M 48.850772,125.48955 18.263577,111.03263 -15.289886,115.36208 -0.83296986,84.774882 -5.1624137,51.221419 25.424782,65.678335 58.978244,61.348891 44.521328,91.936086 Z"
       transform="matrix(0.11267449,0.13137189,-0.11938705,0.11357459,90.622427,211.9293)" />
    <path
       style="fill:none;fill-opacity:1;stroke:#000000;stroke-width:6.8;stroke-dasharray:none;stroke-opacity:1"
       id="path3253-52-7-6"
       d="M 48.850772,125.48955 18.263577,111.03263 -15.289886,115.36208 -0.83296986,84.774882 -5.1624137,51.221419 25.424782,65.678335 58.978244,61.348891 44.521328,91.936086 Z"
       transform="matrix(0.11267449,0.13137189,-0.11938705,0.11357459,145.93337,325.24041)" />
    <path
       style="fill:none;fill-opacity:1;stroke:#000000;stroke-width:6.8;stroke-dasharray:none;stroke-opacity:1"
       id="path3253-52-7-2"
       d="M 48.850772,125.48955 18.263577,111.03263 -15.289886,115.36208 -0.83296986,84.774882 -5.1624137,51.221419 25.424782,65.678335 58.978244,61.348891 44.521328,91.936086 Z"
       transform="matrix(0.17293264,-0.00695817,0.01509478,0.16408718,72.532678,246.1551)" />
    <path
       style="fill:none;fill-opacity:1;stroke:#000000;stroke-width:6.8;stroke-dasharray:none;stroke-opacity:1"
       id="path3253-5"
       d="M 58.514285,144.03517 27.92709,129.57825 -5.6263728,133.90769 8.8305433,103.3205 4.5010995,69.767035 35.088295,84.223951 68.641757,79.894507 54.184841,110.4817 Z"
       transform="matrix(0.16451832,0.24546476,-0.21501278,0.24789719,126.20833,219.10275)" />
    <path
       style="fill:none;fill-opacity:1;stroke:#000000;stroke-width:6.8;stroke-dasharray:none;stroke-opacity:1"
       id="path3253-5-1"
       d="M 58.514285,144.03517 27.92709,129.57825 -5.6263728,133.90769 8.8305433,103.3205 4.5010995,69.767035 35.088295,84.223951 68.641757,79.894507 54.184841,110.4817 Z"
       transform="matrix(0.26830731,0.06773745,-0.00754632,0.26287555,104.54516,320.66308)" />
    <path
       style="fill:none;fill-opacity:1;stroke:#000000;stroke-width:6.8;stroke-dasharray:none;stroke-opacity:1"
       id="path3253-59"
       d="M 58.514285,144.03517 27.92709,129.57825 -5.6263728,133.90769 8.8305433,103.3205 4.5010995,69.767035 35.088295,84.223951 68.641757,79.894507 54.184841,110.4817 Z"
       transform="matrix(0.33111483,0.40646949,-0.32936724,0.47845564,175.16235,310.81534)" />
    <path
       style="fill:none;fill-opacity:1;stroke:#000000;stroke-width:6.8;stroke-dasharray:none;stroke-opacity:1"
       id="path3253-7"
       d="M 58.514285,144.03517 27.92709,129.57825 -5.6263728,133.90769 8.8305433,103.3205 4.5010995,69.767035 35.088295,84.223951 68.641757,79.894507 54.184841,110.4817 Z"
       transform="matrix(-0.4732552,0.22557479,0.09281547,0.57340027,414.54963,126.70884)" />
    <path
       style="fill:none;fill-opacity:1;stroke:#000000;stroke-width:6.8;stroke-dasharray:none;stroke-opacity:1"
       id="path3253-52-5"
       d="M 58.514285,144.03517 27.92709,129.57825 -5.6263728,133.90769 8.8305433,103.3205 4.5010995,69.767035 35.088295,84.223951 68.641757,79.894507 54.184841,110.4817 Z"
       transform="matrix(-0.54128948,0.02601871,-0.14138787,0.60167536,449.50954,238.38997)" />
    <path
       style="fill:none;fill-opacity:1;stroke:#000000;stroke-width:6.8;stroke-dasharray:none;stroke-opacity:1"
       id="path3253-52-7-3"
       d="M 89.925275,107.70203 59.33808,93.245112 25.784617,97.574556 40.241533,66.98736 35.912089,33.433897 66.499284,47.890814 100.05275,43.56137 85.595831,74.148565 Z"
       transform="matrix(-0.11267449,0.13137189,0.11938705,0.11357459,424.98717,212.27461)" />
    <path
       style="fill:none;fill-opacity:1;stroke:#000000;stroke-width:6.8;stroke-dasharray:none;stroke-opacity:1"
       id="path3253-52-7-3-1"
       d="M 89.925275,107.70203 59.33808,93.245112 25.784617,97.574556 40.241533,66.98736 35.912089,33.433897 66.499284,47.890814 100.05275,43.56137 85.595831,74.148565 Z"
       transform="matrix(-0.11267449,0.13137189,0.11938705,0.11357459,377.82048,328.23821)" />
    <path
       style="fill:none;fill-opacity:1;stroke:#000000;stroke-width:6.8;stroke-dasharray:none;stroke-opacity:1"
       id="path3253-52-7-3-4"
       d="M 89.925275,107.70203 59.33808,93.245112 25.784617,97.574556 40.241533,66.98736 35.912089,33.433897 66.499284,47.890814 100.05275,43.56137 85.595831,74.148565 Z"
       transform="matrix(-0.16190943,0.06115105,0.05020549,0.15694542,442.68819,243.63538)" />
    <path
       style="fill:none;fill-opacity:1;stroke:#000000;stroke-width:6.8;stroke-dasharray:none;stroke-opacity:1"
       id="path3253-5-0"
       d="M 58.514285,144.03517 27.92709,129.57825 -5.6263728,133.90769 8.8305433,103.3205 4.5010995,69.767035 35.088295,84.223951 68.641757,79.894507 54.184841,110.4817 Z"
       transform="matrix(-0.16451832,0.24546476,0.21501278,0.24789719,391.77489,223.0085)" />
    <path
       style="fill:none;fill-opacity:1;stroke:#000000;stroke-width:6.8;stroke-dasharray:none;stroke-opacity:1"
       id="path3253-5-1-2"
       d="M 58.514285,144.03517 27.92709,129.57825 -5.6263728,133.90769 8.8305433,103.3205 4.5010995,69.767035 35.088295,84.223951 68.641757,79.894507 54.184841,110.4817 Z"
       transform="matrix(-0.26830731,0.06773745,0.00754632,0.26287555,410.06224,321.6941)" />
    <path
       style="fill:none;fill-opacity:1;stroke:#000000;stroke-width:6.8;stroke-dasharray:none;stroke-opacity:1"
       id="path3253-59-6"
       d="M 58.514285,144.03517 27.92709,129.57825 -5.6263728,133.90769 8.8305433,103.3205 4.5010995,69.767035 35.088295,84.223951 68.641757,79.894507 54.184841,110.4817 Z"
       transform="matrix(-0.33111483,0.40646949,0.32936724,0.47845564,339.44505,311.84636)" />
  </g>
</svg>
